<svg width="30" height="22" viewBox="0 0 30 22" fill="none" xmlns="http://www.w3.org/2000/svg">
<g id="flag/IN" clip-path="url(#clip0_7_303)">
<path id="Vector" d="M1.0117 0H28.9883V22H1.0117V0Z" fill="#181A93"/>
<path id="Vector_2" d="M0 0H30V7.33333H0V0Z" fill="#FFA44A"/>
<path id="Vector_3" d="M0 14.6667H30V22H0V14.6667Z" fill="#1A9F0B"/>
<path id="Vector_4" d="M0 7.33334H30V14.6667H0V7.33334Z" fill="white"/>
<path id="Vector_5" d="M15 13.2C16.1046 13.2 17 12.215 17 11C17 9.78498 16.1046 8.8 15 8.8C13.8954 8.8 13 9.78498 13 11C13 12.215 13.8954 13.2 15 13.2Z" fill="white"/>
<path id="Vector_6" d="M15 13.9333C13.5322 13.9333 12.3333 12.6146 12.3333 11C12.3333 9.38538 13.5322 8.06667 15 8.06667C16.4678 8.06667 17.6667 9.38538 17.6667 11C17.6667 12.6146 16.4678 13.9333 15 13.9333ZM15 13.2C16.0643 13.2 17 12.1708 17 11C17 9.82924 16.0702 8.8 15 8.8C13.9298 8.8 13 9.82924 13 11C13 12.1708 13.9357 13.2 15 13.2Z" fill="#181A93"/>
<path id="Vector_7" d="M15 12.4667C15.7364 12.4667 16.3333 11.81 16.3333 11C16.3333 10.19 15.7364 9.53333 15 9.53333C14.2636 9.53333 13.6667 10.19 13.6667 11C13.6667 11.81 14.2636 12.4667 15 12.4667Z" fill="#181A93"/>
</g>
<defs>
<clipPath id="clip0_7_303">
<rect width="30" height="22" fill="white"/>
</clipPath>
</defs>
</svg>
